<svg width="60" height="61" viewBox="0 0 60 61" fill="none" xmlns="http://www.w3.org/2000/svg">
<g clip-path="url(#clip0_2080_147)">
<path d="M42.3223 25.2638H41.1298V7.57561H41.6234C42.5552 7.57561 43.3108 6.82037 43.3108 5.88907V1.91579C43.3108 0.98449 42.5552 0.229004 41.6234 0.229004H37.6517C36.7192 0.229004 35.9637 0.98449 35.9637 1.91579V5.88907C35.9637 6.82049 36.7192 7.57561 37.6517 7.57561H38.147V18.5026C35.2206 14.0398 30.6643 10.7549 25.3297 9.47113V8.16416C25.3297 6.90469 24.3081 5.88433 23.0494 5.88433H17.6778C16.4196 5.88433 15.3979 6.90469 15.3979 8.16416V13.5366C15.3979 14.7961 16.4195 15.8167 17.6778 15.8167H23.0494C24.2962 15.8167 25.3026 14.8136 25.3218 13.5719C30.9034 15.2467 35.2999 19.6707 36.9429 25.2656C35.6883 25.2714 34.6724 26.2883 34.6724 27.5435V32.9132C34.6724 34.1513 35.6631 35.1466 36.8924 35.1805C35.2006 40.6978 30.8179 45.0413 25.2832 46.6881C25.1623 45.5432 24.2265 44.6391 23.0494 44.6391H17.6778C16.4196 44.6391 15.3979 45.6597 15.3979 46.9192V52.2908C15.3979 53.5503 16.4195 54.5706 17.6778 54.5706H23.0494C24.308 54.5706 25.3297 53.5503 25.3297 52.2908V50.779C30.6643 49.4952 35.2206 46.2104 38.147 41.7485V52.8809H37.6517C36.7192 52.8809 35.9637 53.6364 35.9637 54.5677V58.5421C35.9637 59.4733 36.7192 60.2286 37.6517 60.2286H41.6234C42.5552 60.2286 43.3108 59.4732 43.3108 58.5421V54.5677C43.3108 53.6364 42.5552 52.8809 41.6234 52.8809H41.1298V35.1934H42.3223C43.5808 35.1934 44.602 34.1728 44.602 32.9133V27.5436C44.602 26.2844 43.5809 25.2638 42.3223 25.2638Z" fill="white"/>
</g>
<defs>
<clipPath id="clip0_2080_147">
<rect width="60" height="60" fill="white" transform="translate(0 0.229004)"/>
</clipPath>
</defs>
</svg>
