<svg width="26" height="26" viewBox="0 0 26 26" fill="none" xmlns="http://www.w3.org/2000/svg">
<path d="M8.66667 9.75006H6.71667C5.50322 9.75006 4.89649 9.75006 4.43302 9.98622C4.02533 10.1939 3.69387 10.5254 3.48616 10.9331C3.25 11.3966 3.25 12.0033 3.25 13.2168V19.2834C3.25 20.4969 3.25 21.1035 3.48616 21.567C3.69387 21.9748 4.02533 22.3062 4.43302 22.5139C4.89649 22.7501 5.50321 22.7501 6.71667 22.7501H19.2693C20.4827 22.7501 21.0894 22.7501 21.5529 22.5139C21.9606 22.3062 22.292 21.9748 22.4997 21.567C22.7359 21.1035 22.7359 20.4969 22.7359 19.2834V13.0001M6.5 16.2501H6.51083M10.8333 16.25H10.8442M12.4788 13.9691L13.9032 13.6876C14.6718 13.5357 15.0561 13.4598 15.4144 13.3199C15.7325 13.1958 16.0347 13.0344 16.315 12.8392C16.6307 12.6194 16.9076 12.3424 17.4616 11.7884L23.039 6.21098C23.7836 5.46646 23.7836 4.25934 23.039 3.51481C22.2946 2.77029 21.0874 2.77029 20.3429 3.51482L14.6701 9.18762C14.151 9.70671 13.8915 9.96626 13.6819 10.2605C13.4957 10.5217 13.3392 10.8027 13.2152 11.0984C13.0754 11.4315 12.9914 11.7889 12.8234 12.5035L12.4788 13.9691Z" stroke="#DE2428" stroke-linecap="round" stroke-linejoin="round"/>
</svg>
