<svg width="21" height="20" viewBox="0 0 21 20" fill="none" xmlns="http://www.w3.org/2000/svg">
<path fill-rule="evenodd" clip-rule="evenodd" d="M20.9792 10.0604C20.9792 4.50473 16.5016 0 10.9792 0C5.45693 0 0.979248 4.50473 0.979248 10.0604C0.979248 15.0816 4.6355 19.2437 9.41675 19.9991L9.41675 12.9694L6.87702 12.9694L6.87702 10.0604L9.41675 10.0604L9.41675 7.84397C9.41675 5.32303 10.9101 3.9294 13.194 3.9294C14.2882 3.9294 15.4328 4.12611 15.4328 4.12611L15.4328 6.60214L14.1712 6.60214C12.9297 6.60214 12.5413 7.37733 12.5413 8.17408L12.5413 10.0604L15.3145 10.0604L14.8717 12.9694L12.5417 12.9694L12.5417 20C17.323 19.245 20.9792 15.083 20.9792 10.0604Z" fill="white"/>
</svg>
