<svg width="254" height="52" viewBox="0 0 254 52" fill="none" xmlns="http://www.w3.org/2000/svg">
<g clip-path="url(#clip0_79_3015)">
<mask id="mask0_79_3015" style="mask-type:luminance" maskUnits="userSpaceOnUse" x="0" y="0" width="254" height="52">
<path d="M254 0H0V51.9834H254V0Z" fill="white"/>
</mask>
<g mask="url(#mask0_79_3015)">
<path d="M38.6002 46.9116L37.4731 51.9832H55.2236L54.2374 46.9116H38.6002Z" fill="white"/>
</g>
<mask id="mask1_79_3015" style="mask-type:luminance" maskUnits="userSpaceOnUse" x="0" y="0" width="254" height="52">
<path d="M254 0H0V51.9834H254V0Z" fill="white"/>
</mask>
<g mask="url(#mask1_79_3015)">
<path d="M39.5864 41.981H52.9697L46.2076 8.31152L39.5864 41.981Z" fill="#DE2428"/>
</g>
<mask id="mask2_79_3015" style="mask-type:luminance" maskUnits="userSpaceOnUse" x="0" y="0" width="254" height="52">
<path d="M254 0H0V51.9834H254V0Z" fill="white"/>
</mask>
<g mask="url(#mask2_79_3015)">
<path d="M21.6949 0C21.8358 0.140876 21.9766 0.281753 22.1175 0.281753C24.2307 2.53577 25.3577 6.19856 25.3577 11.5519V12.6789H17.3277V12.1154C17.3277 6.62119 15.3555 3.80366 11.6927 3.80366C10.0022 3.80366 8.45251 4.50804 7.46638 5.91681C6.48025 7.18469 6.05762 8.87521 6.05762 11.1292C6.05762 12.3971 6.33937 13.665 6.90287 14.792C7.46638 15.919 8.31164 17.046 9.43865 17.8913L19.0182 25.3577C21.4131 27.1891 23.2445 29.1614 24.3715 31.1337C25.4985 33.1059 25.9212 35.7826 25.9212 39.3045C25.9212 44.5169 24.6533 48.6023 22.1175 51.1381C21.8358 51.5607 21.4131 51.8425 20.9905 52.1242H27.7526L39.5862 0H21.6949Z" fill="white"/>
</g>
<mask id="mask3_79_3015" style="mask-type:luminance" maskUnits="userSpaceOnUse" x="0" y="0" width="254" height="52">
<path d="M254 0H0V51.9834H254V0Z" fill="white"/>
</mask>
<g mask="url(#mask3_79_3015)">
<path d="M5.3533 38.4594C5.3533 41.5586 5.77593 43.8127 6.62119 45.3623C7.32557 46.4893 8.59346 47.8981 11.5519 47.8981C13.5241 47.8981 15.0738 47.1937 16.0599 45.9258C17.046 44.6579 17.6095 42.9674 17.6095 40.7134C17.6095 39.0229 17.3278 37.6141 16.7643 36.4871C16.2008 35.3601 15.2146 34.2331 14.0876 33.3878L6.19856 27.6119C3.38103 25.4987 1.26789 23.3856 0 21.5542V37.8959H5.3533V38.4594Z" fill="white"/>
</g>
<mask id="mask4_79_3015" style="mask-type:luminance" maskUnits="userSpaceOnUse" x="0" y="0" width="254" height="52">
<path d="M254 0H0V51.9834H254V0Z" fill="white"/>
</mask>
<g mask="url(#mask4_79_3015)">
<path d="M78.7497 19.3C77.6227 20.5679 76.2139 21.1314 74.5234 21.1314H57.0547V16.3416H74.6643C75.3687 16.3416 75.6504 15.7781 75.6504 14.792C75.6504 13.8058 75.3687 13.2423 74.6643 13.2423H61.9854C60.2949 13.2423 58.8861 12.6788 57.7591 11.4109C56.773 10.2839 56.2095 8.73429 56.2095 7.04377C56.2095 5.35326 56.773 3.80362 57.9 2.67661C59.027 1.40872 60.2949 0.845215 61.9854 0.845215H79.4541V5.63501H61.8445C61.1401 5.63501 60.8584 6.19852 60.8584 7.18465C60.8584 8.17078 61.1401 8.73429 61.8445 8.73429H74.6643C76.3548 8.73429 77.7635 9.29779 78.8906 10.5657C79.8767 11.8336 80.4402 13.2423 80.4402 14.9328C80.2993 16.6234 79.8767 18.0321 78.7497 19.3Z" fill="#DE2428"/>
</g>
<mask id="mask5_79_3015" style="mask-type:luminance" maskUnits="userSpaceOnUse" x="0" y="0" width="254" height="52">
<path d="M254 0H0V51.9834H254V0Z" fill="white"/>
</mask>
<g mask="url(#mask5_79_3015)">
<path d="M88.1887 0.845215H83.3989V21.1314H88.1887V0.845215Z" fill="#DE2428"/>
</g>
<mask id="mask6_79_3015" style="mask-type:luminance" maskUnits="userSpaceOnUse" x="0" y="0" width="254" height="52">
<path d="M254 0H0V51.9834H254V0Z" fill="white"/>
</mask>
<g mask="url(#mask6_79_3015)">
<path d="M98.4728 21.1317C96.6414 21.1317 95.0917 20.5681 93.8238 19.3003C92.5559 18.0324 91.8516 16.4827 91.8516 14.6513V7.1849C91.8516 5.35351 92.5559 3.80387 93.8238 2.53598C95.0917 1.2681 96.6414 0.70459 98.4728 0.70459H114.11V5.63526H98.4728C97.2049 5.63526 96.6414 6.19877 96.6414 7.32578V14.7922C96.6414 15.9192 97.2049 16.4827 98.4728 16.4827H109.461V13.3835H102.981L100.727 8.59366H114.11V21.1317H98.4728Z" fill="#DE2428"/>
</g>
<mask id="mask7_79_3015" style="mask-type:luminance" maskUnits="userSpaceOnUse" x="0" y="0" width="254" height="52">
<path d="M254 0H0V51.9834H254V0Z" fill="white"/>
</mask>
<g mask="url(#mask7_79_3015)">
<path d="M134.678 21.1314L122.562 7.4664V21.1314H117.772V0.845215H122.562L134.678 14.3693V0.845215H139.467V21.1314H134.678Z" fill="#DE2428"/>
</g>
<mask id="mask8_79_3015" style="mask-type:luminance" maskUnits="userSpaceOnUse" x="0" y="0" width="254" height="52">
<path d="M254 0H0V51.9834H254V0Z" fill="white"/>
</mask>
<g mask="url(#mask8_79_3015)">
<path d="M152.428 11.5518L147.498 21.1314H142.285L147.216 11.5518H152.428ZM161.726 21.1314L159.049 15.7781H153.133L155.246 11.5518H156.795C154.964 8.02991 153.133 4.36712 151.301 0.845215H152.428H156.514L162.008 11.5518H165.671L168.488 15.7781H164.262L166.939 21.1314H161.726Z" fill="#DE2428"/>
</g>
<mask id="mask9_79_3015" style="mask-type:luminance" maskUnits="userSpaceOnUse" x="0" y="0" width="254" height="52">
<path d="M254 0H0V51.9834H254V0Z" fill="white"/>
</mask>
<g mask="url(#mask9_79_3015)">
<path d="M196.804 12.3971C195.818 13.8058 194.409 14.5102 192.719 14.5102L198.354 21.1314H192.155L188.492 16.7642L186.661 14.5102H177.786V21.1314H172.996V9.8613H177.786H185.252H192.719C193.423 9.8613 193.705 9.15692 193.705 7.74816C193.705 6.33939 193.423 5.63501 192.719 5.63501H185.252H177.786H172.996V0.845215H192.578C194.409 0.845215 195.818 1.5496 196.804 2.95836C197.79 4.22625 198.354 5.77589 198.354 7.60728C198.213 9.57955 197.79 11.1292 196.804 12.3971Z" fill="#DE2428"/>
</g>
<mask id="mask10_79_3015" style="mask-type:luminance" maskUnits="userSpaceOnUse" x="0" y="0" width="254" height="52">
<path d="M254 0H0V51.9834H254V0Z" fill="white"/>
</mask>
<g mask="url(#mask10_79_3015)">
<path d="M208.356 21.1317C206.525 21.1317 204.975 20.5681 203.707 19.3003C202.439 18.0324 201.735 16.4827 201.735 14.6513V7.1849C201.735 5.35351 202.439 3.80387 203.707 2.53598C204.975 1.2681 206.525 0.70459 208.356 0.70459H223.993V5.63526H208.356C207.088 5.63526 206.525 6.19877 206.525 7.32578V14.7922C206.525 15.9192 207.088 16.4827 208.356 16.4827H223.993V21.1317H208.356Z" fill="#DE2428"/>
</g>
<mask id="mask11_79_3015" style="mask-type:luminance" maskUnits="userSpaceOnUse" x="0" y="0" width="254" height="52">
<path d="M254 0H0V51.9834H254V0Z" fill="white"/>
</mask>
<g mask="url(#mask11_79_3015)">
<path d="M247.66 21.1314V13.3832H232.164V21.1314H227.515V0.845215H232.164V8.59341H247.66V0.845215H252.45V21.1314H247.66Z" fill="#DE2428"/>
</g>
<mask id="mask12_79_3015" style="mask-type:luminance" maskUnits="userSpaceOnUse" x="0" y="0" width="254" height="52">
<path d="M254 0H0V51.9834H254V0Z" fill="white"/>
</mask>
<g mask="url(#mask12_79_3015)">
<path d="M78.0455 51.5609C76.2141 51.5609 74.6645 50.9973 73.3966 49.7295C72.1287 48.4616 71.4243 46.9119 71.4243 45.0805V37.6141C71.4243 35.7827 72.1287 34.2331 73.3966 32.9652C74.6645 31.6973 76.2141 31.1338 78.0455 31.1338H93.6828V35.9236H78.0455C76.7776 35.9236 76.2141 36.4871 76.2141 37.6141V45.0805C76.2141 46.2076 76.7776 46.7711 78.0455 46.7711H93.6828V51.5609H78.0455Z" fill="white"/>
</g>
<mask id="mask13_79_3015" style="mask-type:luminance" maskUnits="userSpaceOnUse" x="0" y="0" width="254" height="52">
<path d="M254 0H0V51.9834H254V0Z" fill="white"/>
</mask>
<g mask="url(#mask13_79_3015)">
<path d="M120.449 49.7295C119.181 50.9973 117.632 51.5609 115.8 51.5609H103.826C101.994 51.5609 100.445 50.9973 99.1769 49.7295C97.909 48.4616 97.2046 46.9119 97.2046 45.0805V37.6141C97.2046 35.7827 97.909 34.2331 99.1769 32.9652C100.445 31.6973 101.994 31.1338 103.826 31.1338H115.8C117.632 31.1338 119.181 31.6973 120.449 32.9652C121.717 34.2331 122.421 35.7827 122.421 37.6141V45.0805C122.421 47.0528 121.717 48.6025 120.449 49.7295ZM117.632 37.755C117.632 36.628 117.068 36.0645 115.8 36.0645H103.826C102.558 36.0645 101.994 36.628 101.994 37.755V45.2214C101.994 46.3484 102.699 46.9119 103.826 46.9119H115.8C117.068 46.9119 117.632 46.3484 117.632 45.2214V37.755Z" fill="white"/>
</g>
<mask id="mask14_79_3015" style="mask-type:luminance" maskUnits="userSpaceOnUse" x="0" y="0" width="254" height="52">
<path d="M254 0H0V51.9834H254V0Z" fill="white"/>
</mask>
<g mask="url(#mask14_79_3015)">
<path d="M147.357 51.5606V39.3044L138.904 51.2789L130.452 39.3044V51.5606H125.803V31.2744H130.733L138.904 43.108L147.216 31.2744H152.147V51.5606H147.357Z" fill="white"/>
</g>
<mask id="mask15_79_3015" style="mask-type:luminance" maskUnits="userSpaceOnUse" x="0" y="0" width="254" height="52">
<path d="M254 0H0V51.9834H254V0Z" fill="white"/>
</mask>
<g mask="url(#mask15_79_3015)">
<path d="M179.758 42.8263C178.772 44.235 177.363 44.9394 175.673 44.9394H169.474H166.797H160.599V51.5606H155.809V40.2905H160.599H168.065H175.532C176.236 40.2905 176.518 39.5861 176.518 38.1774C176.518 36.7686 176.236 36.0642 175.532 36.0642H168.065H160.599H155.809V31.2744H175.391C177.222 31.2744 178.631 31.9788 179.617 33.3876C180.603 34.6554 181.167 36.2051 181.167 38.0365C181.308 40.0087 180.744 41.5584 179.758 42.8263Z" fill="white"/>
</g>
<mask id="mask16_79_3015" style="mask-type:luminance" maskUnits="userSpaceOnUse" x="0" y="0" width="254" height="52">
<path d="M254 0H0V51.9834H254V0Z" fill="white"/>
</mask>
<g mask="url(#mask16_79_3015)">
<path d="M186.661 42.1219L181.73 51.7015H176.377L181.308 42.1219H186.661ZM195.959 51.5606L193.282 46.2073H187.365L189.478 41.981H191.028C189.197 38.4591 187.365 34.7963 185.534 31.2744H186.661H190.746L196.241 41.981H199.903L202.721 46.2073H198.495L201.171 51.5606H195.959Z" fill="white"/>
</g>
<mask id="mask17_79_3015" style="mask-type:luminance" maskUnits="userSpaceOnUse" x="0" y="0" width="254" height="52">
<path d="M254 0H0V51.9834H254V0Z" fill="white"/>
</mask>
<g mask="url(#mask17_79_3015)">
<path d="M223.994 51.5606L211.737 37.8956V51.5606H207.088V31.2744H211.737L223.994 44.9394V31.2744H228.642V51.5606H223.994Z" fill="white"/>
</g>
<path d="M240.335 42.2628L239.631 41.2766L231.319 31.2744H237.517L242.73 37.6138L247.942 31.2744H254L245.688 41.2766L244.984 42.2628V51.5606H240.335V42.2628Z" fill="white"/>
</g>
<defs>
<clipPath id="clip0_79_3015">
<rect width="254" height="51.9834" fill="white"/>
</clipPath>
</defs>
</svg>
