<svg width="20" height="27" viewBox="0 0 20 27" fill="none" xmlns="http://www.w3.org/2000/svg">
<path fill-rule="evenodd" clip-rule="evenodd" d="M9.74209 26.4854C10.4463 26.4854 11.0171 25.9145 11.0171 25.2104L11.0171 5.29421C11.0171 4.59005 10.4463 4.01921 9.74209 4.01921C9.03793 4.01921 8.46709 4.59005 8.46709 5.29421L8.46709 25.2104C8.46709 25.9145 9.03793 26.4854 9.74209 26.4854Z" fill="#1E1E1E"/>
<path fill-rule="evenodd" clip-rule="evenodd" d="M18.1121 11.1701C18.61 10.6722 18.61 9.86491 18.1121 9.36699L11.6698 2.92472C10.5861 1.84101 8.8291 1.84101 7.74539 2.92471L1.33264 9.33747C0.834717 9.83539 0.834717 10.6427 1.33264 11.1406C1.83055 11.6385 2.63784 11.6385 3.13576 11.1406L9.54851 4.72784C9.63638 4.63997 9.77884 4.63997 9.86671 4.72784L16.309 11.1701C16.8069 11.668 17.6142 11.668 18.1121 11.1701Z" fill="#1E1E1E"/>
</svg>
