<svg width="26" height="26" viewBox="0 0 26 26" fill="none" xmlns="http://www.w3.org/2000/svg">
<path d="M13 18.4166V11.9166" stroke="#DE2428" stroke-linecap="round"/>
<path d="M13.0003 7.58333C13.5986 7.58333 14.0837 8.06836 14.0837 8.66667C14.0837 9.26498 13.5986 9.75 13.0003 9.75C12.402 9.75 11.917 9.26498 11.917 8.66667C11.917 8.06836 12.402 7.58333 13.0003 7.58333Z" fill="#DE2428"/>
<path d="M23.8337 13C23.8337 18.1068 23.8337 20.6603 22.2471 22.2467C20.6607 23.8333 18.1072 23.8333 13.0003 23.8333C7.89344 23.8333 5.34 23.8333 3.7535 22.2467C2.16699 20.6603 2.16699 18.1068 2.16699 13C2.16699 7.89307 2.16699 5.33963 3.7535 3.75313C5.34 2.16663 7.89344 2.16663 13.0003 2.16663C18.1072 2.16663 20.6607 2.16663 22.2471 3.75313C23.3021 4.80802 23.6556 6.29039 23.774 8.66663" stroke="#DE2428" stroke-linecap="round"/>
</svg>
