<svg width="20" height="20" viewBox="0 0 20 20" fill="none" xmlns="http://www.w3.org/2000/svg">
<path d="M14.7949 0.72998H5.2051C2.73405 0.72998 0.72998 2.73404 0.72998 5.20509V14.7949C0.72998 17.2659 2.73405 19.27 5.2051 19.27H14.7949C17.2659 19.27 19.27 17.2659 19.27 14.7949V5.20509C19.27 2.73404 17.2659 0.72998 14.7949 0.72998ZM17.6715 14.4747C17.6715 16.2394 16.2394 17.6715 14.4747 17.6715H5.52532C3.76054 17.6715 2.32843 16.2394 2.32843 14.4747V5.52532C2.32843 3.76053 3.76054 2.32843 5.52532 2.32843H14.4755C16.2403 2.32843 17.6724 3.76053 17.6724 5.52532V14.4747H17.6715Z" fill="white"/>
<path d="M10.0093 5.20508C7.36301 5.20508 5.21484 7.35324 5.21484 9.99952C5.21484 12.6458 7.36301 14.794 10.0093 14.794C12.6556 14.794 14.8037 12.6458 14.8037 9.99952C14.8037 7.35324 12.6556 5.20508 10.0093 5.20508ZM10.0093 13.1964C8.24807 13.1964 6.8124 11.7607 6.8124 9.99952C6.8124 8.2383 8.24807 6.80264 10.0093 6.80264C11.7705 6.80264 13.2062 8.2383 13.2062 9.99952C13.2062 11.7616 11.7705 13.1964 10.0093 13.1964Z" fill="white"/>
<path d="M15.1239 5.84454C15.6535 5.84454 16.0828 5.41523 16.0828 4.88565C16.0828 4.35607 15.6535 3.92676 15.1239 3.92676C14.5944 3.92676 14.165 4.35607 14.165 4.88565C14.165 5.41523 14.5944 5.84454 15.1239 5.84454Z" fill="white"/>
</svg>
