<svg width="60" height="60" viewBox="0 0 60 60" fill="none" xmlns="http://www.w3.org/2000/svg">
<rect x="0.5" y="59.5" width="59" height="59" rx="29.5" transform="rotate(-90 0.5 59.5)" fill="black"/>
<rect x="0.5" y="59.5" width="59" height="59" rx="29.5" transform="rotate(-90 0.5 59.5)" stroke="#383838"/>
<path d="M34.7949 20.73H25.2051C22.734 20.73 20.73 22.734 20.73 25.2051V34.7949C20.73 37.2659 22.734 39.27 25.2051 39.27H34.7949C37.2659 39.27 39.27 37.2659 39.27 34.7949V25.2051C39.27 22.734 37.2659 20.73 34.7949 20.73ZM37.6715 34.4747C37.6715 36.2394 36.2394 37.6715 34.4747 37.6715H25.5253C23.7605 37.6715 22.3284 36.2394 22.3284 34.4747V25.5253C22.3284 23.7605 23.7605 22.3284 25.5253 22.3284H34.4755C36.2403 22.3284 37.6724 23.7605 37.6724 25.5253V34.4747H37.6715Z" fill="white"/>
<path d="M30.0093 25.2051C27.363 25.2051 25.2148 27.3532 25.2148 29.9995C25.2148 32.6458 27.363 34.794 30.0093 34.794C32.6556 34.794 34.8037 32.6458 34.8037 29.9995C34.8037 27.3532 32.6556 25.2051 30.0093 25.2051ZM30.0093 33.1964C28.2481 33.1964 26.8124 31.7607 26.8124 29.9995C26.8124 28.2383 28.2481 26.8026 30.0093 26.8026C31.7705 26.8026 33.2062 28.2383 33.2062 29.9995C33.2062 31.7616 31.7705 33.1964 30.0093 33.1964Z" fill="white"/>
<path d="M35.1239 25.8445C35.6535 25.8445 36.0828 25.4152 36.0828 24.8856C36.0828 24.3561 35.6535 23.9268 35.1239 23.9268C34.5944 23.9268 34.165 24.3561 34.165 24.8856C34.165 25.4152 34.5944 25.8445 35.1239 25.8445Z" fill="white"/>
</svg>
