<svg width="20" height="20" viewBox="0 0 20 20" fill="none" xmlns="http://www.w3.org/2000/svg">
<path d="M18.0887 0.371094L2.0166 0.371094C1.13839 0.371094 0.371094 1.00299 0.371094 1.87088L0.371094 17.9786C0.371094 18.8512 1.13839 19.6288 2.0166 19.6288L18.0839 19.6288C18.9669 19.6288 19.6288 18.8461 19.6288 17.9786L19.6288 1.87088C19.634 1.00299 18.9669 0.371094 18.0887 0.371094ZM6.34056 16.4234H3.58172L3.58172 7.84551L6.34056 7.84551L6.34056 16.4234ZM5.05657 6.54131H5.0368C4.15386 6.54131 3.58215 5.88405 3.58215 5.0613C3.58215 4.2235 4.16891 3.58172 5.07162 3.58172C5.97432 3.58172 6.52669 4.21877 6.54647 5.0613C6.54604 5.88405 5.97432 6.54131 5.05657 6.54131ZM16.4234 16.4234L13.6645 16.4234L13.6645 11.7332C13.6645 10.6095 13.263 9.84178 12.2649 9.84178C11.5023 9.84178 11.051 10.3576 10.8502 10.8601C10.775 11.0407 10.7548 11.2865 10.7548 11.5376L10.7548 16.4234L7.99596 16.4234L7.99596 7.84551L10.7548 7.84551V9.03923C11.1563 8.46751 11.7835 7.64476 13.2428 7.64476C15.0538 7.64476 16.4238 8.83848 16.4238 11.4121L16.4234 16.4234Z" fill="white"/>
</svg>
