<svg width="60" height="60" viewBox="0 0 60 60" fill="none" xmlns="http://www.w3.org/2000/svg">
<g clip-path="url(#clip0_77_893)">
<path d="M30 59.3438C15.1406 59.3438 0.046875 56.1563 0.046875 50.0625C0.046875 44.625 11.6719 42.375 16.6406 41.6719H16.8281C17.5313 41.6719 18.1406 42.1875 18.2344 42.8906C18.2813 43.2656 18.1875 43.6406 17.9531 43.9219C17.7188 44.2031 17.3906 44.4375 17.0156 44.4844C6.65625 45.9844 2.8125 48.7031 2.8125 50.1094C2.8125 52.7344 13.4063 56.5781 29.9531 56.5781C46.5 56.5781 57.0938 52.7344 57.0938 50.1094C57.0938 48.7031 53.2031 45.9844 42.75 44.4844C42.375 44.4375 42.0469 44.25 41.8125 43.9219C41.5781 43.6406 41.4844 43.2656 41.5312 42.8906C41.625 42.1875 42.2344 41.6719 42.9375 41.6719H43.125C48.1406 42.375 59.8594 44.625 59.8594 50.0625C59.9062 56.1094 44.8594 59.3438 30 59.3438ZM29.0156 49.4062C28.3125 48.75 12.0937 33.4219 12.0937 18.375C12.0937 8.53125 20.1094 0.515625 29.9531 0.515625C39.7969 0.515625 47.8125 8.53125 47.8125 18.375C47.8125 33 31.5938 48.7031 30.8906 49.3594L29.9531 50.2969L29.0156 49.4062ZM30 3.32812C21.7031 3.32812 14.9531 10.0781 14.9531 18.375C14.9531 30.1406 26.4375 42.75 30 46.3594C33.6094 42.6562 45.0938 29.8125 45.0938 18.375C45.0469 10.125 38.2969 3.32812 30 3.32812ZM30 26.3438C25.3125 26.3438 21.5156 22.5469 21.5156 17.8594C21.5156 13.1719 25.3125 9.375 30 9.375C34.6875 9.375 38.4844 13.1719 38.4844 17.8594C38.4844 22.5469 34.6875 26.3438 30 26.3438ZM30 12.1875C26.8594 12.1875 24.3281 14.7188 24.3281 17.8594C24.3281 21 26.8594 23.5313 30 23.5313C33.1406 23.5313 35.6719 21 35.6719 17.8594C35.6719 14.7188 33.0938 12.1875 30 12.1875Z" fill="#DE2428"/>
</g>
<defs>
<clipPath id="clip0_77_893">
<rect width="60" height="60" fill="white"/>
</clipPath>
</defs>
</svg>
