<svg width="306" height="84" viewBox="0 0 306 84" fill="none" xmlns="http://www.w3.org/2000/svg">
<rect width="306" height="84" rx="10" fill="white"/>
<g clip-path="url(#clip0_76_340)">
<mask id="mask0_76_340" style="mask-type:luminance" maskUnits="userSpaceOnUse" x="26" y="16" width="254" height="52">
<path d="M280 16H26V67.9834H280V16Z" fill="white"/>
</mask>
<g mask="url(#mask0_76_340)">
<path d="M64.6002 62.9118L63.4731 67.9834H81.2236L80.2374 62.9118H64.6002Z" fill="black"/>
</g>
<mask id="mask1_76_340" style="mask-type:luminance" maskUnits="userSpaceOnUse" x="26" y="16" width="254" height="52">
<path d="M280 16H26V67.9834H280V16Z" fill="white"/>
</mask>
<g mask="url(#mask1_76_340)">
<path d="M65.5862 57.9811H78.9694L72.2074 24.3117L65.5862 57.9811Z" fill="#DE2428"/>
</g>
<mask id="mask2_76_340" style="mask-type:luminance" maskUnits="userSpaceOnUse" x="26" y="16" width="254" height="52">
<path d="M280 16H26V67.9834H280V16Z" fill="white"/>
</mask>
<g mask="url(#mask2_76_340)">
<path d="M47.6949 16C47.8358 16.1409 47.9766 16.2818 48.1175 16.2818C50.2307 18.5358 51.3577 22.1986 51.3577 27.5519V28.6789H43.3277V28.1154C43.3277 22.6212 41.3555 19.8037 37.6927 19.8037C36.0022 19.8037 34.4525 20.508 33.4664 21.9168C32.4802 23.1847 32.0576 24.8752 32.0576 27.1292C32.0576 28.3971 32.3394 29.665 32.9029 30.792C33.4664 31.919 34.3116 33.046 35.4386 33.8913L45.0182 41.3577C47.4131 43.1891 49.2445 45.1614 50.3715 47.1337C51.4985 49.1059 51.9212 51.7826 51.9212 55.3045C51.9212 60.5169 50.6533 64.6023 48.1175 67.1381C47.8358 67.5607 47.4131 67.8425 46.9905 68.1242H53.7526L65.5862 16H47.6949Z" fill="black"/>
</g>
<mask id="mask3_76_340" style="mask-type:luminance" maskUnits="userSpaceOnUse" x="26" y="16" width="254" height="52">
<path d="M280 16H26V67.9834H280V16Z" fill="white"/>
</mask>
<g mask="url(#mask3_76_340)">
<path d="M31.3533 54.4592C31.3533 57.5585 31.7759 59.8125 32.6212 61.3622C33.3256 62.4892 34.5935 63.8979 37.5519 63.8979C39.5241 63.8979 41.0738 63.1936 42.0599 61.9257C43.046 60.6578 43.6095 58.9673 43.6095 56.7133C43.6095 55.0227 43.3278 53.614 42.7643 52.487C42.2008 51.36 41.2146 50.2329 40.0876 49.3877L32.1986 43.6118C29.381 41.4986 27.2679 39.3855 26 37.5541V53.8957H31.3533V54.4592Z" fill="black"/>
</g>
<mask id="mask4_76_340" style="mask-type:luminance" maskUnits="userSpaceOnUse" x="26" y="16" width="254" height="52">
<path d="M280 16H26V67.9834H280V16Z" fill="white"/>
</mask>
<g mask="url(#mask4_76_340)">
<path d="M104.75 35.3001C103.623 36.5679 102.214 37.1315 100.524 37.1315H83.055V32.3417H100.665C101.369 32.3417 101.651 31.7782 101.651 30.792C101.651 29.8059 101.369 29.2424 100.665 29.2424H87.9856C86.2951 29.2424 84.8864 28.6789 83.7594 27.411C82.7732 26.284 82.2097 24.7343 82.2097 23.0438C82.2097 21.3533 82.7732 19.8037 83.9002 18.6767C85.0272 17.4088 86.2951 16.8453 87.9856 16.8453H105.454V21.6351H87.8448C87.1404 21.6351 86.8586 22.1986 86.8586 23.1847C86.8586 24.1708 87.1404 24.7343 87.8448 24.7343H100.665C102.355 24.7343 103.764 25.2978 104.891 26.5657C105.877 27.8336 106.44 29.2424 106.44 30.9329C106.3 32.6234 105.877 34.0322 104.75 35.3001Z" fill="#DE2428"/>
</g>
<mask id="mask5_76_340" style="mask-type:luminance" maskUnits="userSpaceOnUse" x="26" y="16" width="254" height="52">
<path d="M280 16H26V67.9834H280V16Z" fill="white"/>
</mask>
<g mask="url(#mask5_76_340)">
<path d="M114.188 16.8453H109.399V37.1315H114.188V16.8453Z" fill="#DE2428"/>
</g>
<mask id="mask6_76_340" style="mask-type:luminance" maskUnits="userSpaceOnUse" x="26" y="16" width="254" height="52">
<path d="M280 16H26V67.9834H280V16Z" fill="white"/>
</mask>
<g mask="url(#mask6_76_340)">
<path d="M124.473 37.1314C122.641 37.1314 121.091 36.5679 119.824 35.3001C118.556 34.0322 117.851 32.4825 117.851 30.6511V23.1847C117.851 21.3533 118.556 19.8037 119.824 18.5358C121.091 17.2679 122.641 16.7044 124.473 16.7044H140.11V21.635H124.473C123.205 21.635 122.641 22.1986 122.641 23.3256V30.792C122.641 31.919 123.205 32.4825 124.473 32.4825H135.461V29.3832H128.981L126.727 24.5935H140.11V37.1314H124.473Z" fill="#DE2428"/>
</g>
<mask id="mask7_76_340" style="mask-type:luminance" maskUnits="userSpaceOnUse" x="26" y="16" width="254" height="52">
<path d="M280 16H26V67.9834H280V16Z" fill="white"/>
</mask>
<g mask="url(#mask7_76_340)">
<path d="M160.678 37.1315L148.563 23.4664V37.1315H143.773V16.8453H148.563L160.678 30.3694V16.8453H165.468V37.1315H160.678Z" fill="#DE2428"/>
</g>
<mask id="mask8_76_340" style="mask-type:luminance" maskUnits="userSpaceOnUse" x="26" y="16" width="254" height="52">
<path d="M280 16H26V67.9834H280V16Z" fill="white"/>
</mask>
<g mask="url(#mask8_76_340)">
<path d="M178.428 27.5519L173.498 37.1315H168.285L173.216 27.5519H178.428ZM187.726 37.1315L185.049 31.7782H179.133L181.246 27.5519H182.795C180.964 24.03 179.133 20.3672 177.301 16.8453H178.428H182.514L188.008 27.5519H191.671L194.488 31.7782H190.262L192.939 37.1315H187.726Z" fill="#DE2428"/>
</g>
<mask id="mask9_76_340" style="mask-type:luminance" maskUnits="userSpaceOnUse" x="26" y="16" width="254" height="52">
<path d="M280 16H26V67.9834H280V16Z" fill="white"/>
</mask>
<g mask="url(#mask9_76_340)">
<path d="M222.804 28.3971C221.818 29.8059 220.409 30.5103 218.719 30.5103L224.354 37.1315H218.155L214.492 32.7643L212.661 30.5103H203.786V37.1315H198.996V25.8613H203.786H211.252H218.719C219.423 25.8613 219.705 25.157 219.705 23.7482C219.705 22.3394 219.423 21.6351 218.719 21.6351H211.252H203.786H198.996V16.8453H218.578C220.409 16.8453 221.818 17.5496 222.804 18.9584C223.79 20.2263 224.354 21.7759 224.354 23.6073C224.213 25.5796 223.79 27.1292 222.804 28.3971Z" fill="#DE2428"/>
</g>
<mask id="mask10_76_340" style="mask-type:luminance" maskUnits="userSpaceOnUse" x="26" y="16" width="254" height="52">
<path d="M280 16H26V67.9834H280V16Z" fill="white"/>
</mask>
<g mask="url(#mask10_76_340)">
<path d="M234.356 37.1314C232.525 37.1314 230.975 36.5679 229.707 35.3001C228.439 34.0322 227.735 32.4825 227.735 30.6511V23.1847C227.735 21.3533 228.439 19.8037 229.707 18.5358C230.975 17.2679 232.525 16.7044 234.356 16.7044H249.993V21.635H234.356C233.088 21.635 232.525 22.1986 232.525 23.3256V30.792C232.525 31.919 233.088 32.4825 234.356 32.4825H249.993V37.1314H234.356Z" fill="#DE2428"/>
</g>
<mask id="mask11_76_340" style="mask-type:luminance" maskUnits="userSpaceOnUse" x="26" y="16" width="254" height="52">
<path d="M280 16H26V67.9834H280V16Z" fill="white"/>
</mask>
<g mask="url(#mask11_76_340)">
<path d="M273.66 37.1315V29.3833H258.164V37.1315H253.515V16.8453H258.164V24.5935H273.66V16.8453H278.45V37.1315H273.66Z" fill="#DE2428"/>
</g>
<mask id="mask12_76_340" style="mask-type:luminance" maskUnits="userSpaceOnUse" x="26" y="16" width="254" height="52">
<path d="M280 16H26V67.9834H280V16Z" fill="white"/>
</mask>
<g mask="url(#mask12_76_340)">
<path d="M104.046 67.5607C102.214 67.5607 100.664 66.9972 99.3966 65.7293C98.1287 64.4615 97.4243 62.9118 97.4243 61.0804V53.614C97.4243 51.7826 98.1287 50.2329 99.3966 48.9651C100.664 47.6972 102.214 47.1337 104.046 47.1337H119.683V51.9235H104.046C102.778 51.9235 102.214 52.487 102.214 53.614V61.0804C102.214 62.2074 102.778 62.7709 104.046 62.7709H119.683V67.5607H104.046Z" fill="black"/>
</g>
<mask id="mask13_76_340" style="mask-type:luminance" maskUnits="userSpaceOnUse" x="26" y="16" width="254" height="52">
<path d="M280 16H26V67.9834H280V16Z" fill="white"/>
</mask>
<g mask="url(#mask13_76_340)">
<path d="M146.449 65.7293C145.181 66.9972 143.632 67.5607 141.8 67.5607H129.826C127.994 67.5607 126.445 66.9972 125.177 65.7293C123.909 64.4615 123.205 62.9118 123.205 61.0804V53.614C123.205 51.7826 123.909 50.2329 125.177 48.9651C126.445 47.6972 127.994 47.1337 129.826 47.1337H141.8C143.632 47.1337 145.181 47.6972 146.449 48.9651C147.717 50.2329 148.421 51.7826 148.421 53.614V61.0804C148.421 63.0527 147.717 64.6023 146.449 65.7293ZM143.632 53.7549C143.632 52.6278 143.068 52.0643 141.8 52.0643H129.826C128.558 52.0643 127.994 52.6278 127.994 53.7549V61.2213C127.994 62.3483 128.699 62.9118 129.826 62.9118H141.8C143.068 62.9118 143.632 62.3483 143.632 61.2213V53.7549Z" fill="black"/>
</g>
<mask id="mask14_76_340" style="mask-type:luminance" maskUnits="userSpaceOnUse" x="26" y="16" width="254" height="52">
<path d="M280 16H26V67.9834H280V16Z" fill="white"/>
</mask>
<g mask="url(#mask14_76_340)">
<path d="M173.357 67.5607V55.3045L164.904 67.279L156.451 55.3045V67.5607H151.802V47.2745H156.733L164.904 59.1082L173.216 47.2745H178.146V67.5607H173.357Z" fill="black"/>
</g>
<mask id="mask15_76_340" style="mask-type:luminance" maskUnits="userSpaceOnUse" x="26" y="16" width="254" height="52">
<path d="M280 16H26V67.9834H280V16Z" fill="white"/>
</mask>
<g mask="url(#mask15_76_340)">
<path d="M205.758 58.8264C204.772 60.2352 203.363 60.9395 201.673 60.9395H195.474H192.797H186.599V67.5607H181.809V56.2906H186.599H194.065H201.532C202.236 56.2906 202.518 55.5862 202.518 54.1775C202.518 52.7687 202.236 52.0643 201.532 52.0643H194.065H186.599H181.809V47.2745H201.391C203.222 47.2745 204.631 47.9789 205.617 49.3877C206.603 50.6556 207.167 52.2052 207.167 54.0366C207.308 56.0089 206.744 57.5585 205.758 58.8264Z" fill="black"/>
</g>
<mask id="mask16_76_340" style="mask-type:luminance" maskUnits="userSpaceOnUse" x="26" y="16" width="254" height="52">
<path d="M280 16H26V67.9834H280V16Z" fill="white"/>
</mask>
<g mask="url(#mask16_76_340)">
<path d="M212.661 58.122L207.731 67.7016H202.377L207.308 58.122H212.661ZM221.959 67.5607L219.282 62.2074H213.366L215.479 57.9811H217.028C215.197 54.4592 213.366 50.7965 211.534 47.2745H212.661H216.747L222.241 57.9811H225.904L228.721 62.2074H224.495L227.171 67.5607H221.959Z" fill="black"/>
</g>
<mask id="mask17_76_340" style="mask-type:luminance" maskUnits="userSpaceOnUse" x="26" y="16" width="254" height="52">
<path d="M280 16H26V67.9834H280V16Z" fill="white"/>
</mask>
<g mask="url(#mask17_76_340)">
<path d="M249.993 67.5607L237.737 53.8957V67.5607H233.088V47.2745H237.737L249.993 60.9395V47.2745H254.642V67.5607H249.993Z" fill="black"/>
</g>
<mask id="mask18_76_340" style="mask-type:luminance" maskUnits="userSpaceOnUse" x="26" y="16" width="254" height="52">
<path d="M280 16H26V67.9834H280V16Z" fill="white"/>
</mask>
<g mask="url(#mask18_76_340)">
<path d="M266.335 58.2629L265.631 57.2768L257.319 47.2745H263.517L268.73 53.614L273.942 47.2745H280L271.688 57.2768L270.984 58.2629V67.5607H266.335V58.2629Z" fill="black"/>
</g>
</g>
<defs>
<clipPath id="clip0_76_340">
<rect width="254" height="51.9834" fill="white" transform="translate(26 16)"/>
</clipPath>
</defs>
</svg>
