<svg width="60" height="61" viewBox="0 0 60 61" fill="none" xmlns="http://www.w3.org/2000/svg">
<path d="M51.643 27.3362C51.3215 27.1219 50.7858 27.2291 50.4644 27.4434L42.2144 33.9791V27.7648C42.2144 27.3362 42.0001 27.0148 41.6787 26.8005C41.3573 26.5862 40.9287 26.6934 40.6073 26.9076L30.5358 34.1934L30.0001 27.4434C30.0001 27.1219 29.7858 26.6934 29.4644 26.5862C29.143 26.3719 28.7144 26.4791 28.393 26.5862L16.2858 33.8719V24.0148C17.0358 23.5862 17.6787 23.0505 18.1072 22.3005C18.643 22.5148 19.2858 22.5148 19.9287 22.5148C22.2858 22.5148 24.3215 21.2291 25.393 19.3005C25.7144 19.3005 26.0358 19.4076 26.4644 19.4076C30.8572 19.4076 34.393 15.8719 34.393 11.4791C34.393 7.08622 30.8572 3.44336 26.4644 3.44336C22.5001 3.44336 19.2858 6.22907 18.643 10.0862C15.8572 10.6219 13.8215 12.9791 13.6072 15.8719C11.5715 16.1934 9.96439 18.0148 9.96439 20.1576C9.96439 20.2648 9.96439 20.3719 9.96439 20.3719H8.89296C8.2501 20.3719 7.82153 20.8005 7.82153 21.4434V55.9434C7.82153 56.5862 8.2501 57.0148 8.89296 57.0148H51.2144C51.8572 57.0148 52.2858 56.5862 52.2858 55.9434V28.3005C52.1787 27.8719 51.9644 27.5505 51.643 27.3362ZM12.1072 20.1576C12.1072 18.8719 13.0715 17.9076 14.3572 17.9076C14.4644 17.9076 14.5715 17.9076 14.6787 17.9076C15.0001 17.9076 15.3215 17.8005 15.5358 17.5862C15.7501 17.3719 15.8572 17.0505 15.8572 16.7291C15.8572 16.5148 15.8572 16.4076 15.8572 16.1934C15.8572 14.0505 17.5715 12.1219 19.7144 12.0148C20.2501 12.0148 20.6787 11.5862 20.6787 11.0505C20.7858 7.94336 23.3572 5.58622 26.4644 5.58622C29.6787 5.58622 32.2501 8.15765 32.2501 11.4791C32.2501 14.6934 29.6787 17.2648 26.4644 17.2648C26.0358 17.2648 25.5001 17.1576 25.0715 17.0505C24.5358 16.9434 24.0001 17.1576 23.7858 17.6934C23.143 19.3005 21.643 20.3719 19.9287 20.3719C19.2858 20.3719 18.643 20.2648 18.0001 19.9434C17.6787 19.8362 17.3572 19.8362 17.0358 19.9434C16.7144 20.0505 16.5001 20.3719 16.393 20.6934C16.393 20.9076 16.2858 21.1219 16.1787 21.3362C16.0715 20.8005 15.643 20.4791 15.1072 20.4791H12.0001C12.1072 20.3719 12.1072 20.2648 12.1072 20.1576ZM11.2501 22.5148H14.143V24.2291H9.96439V22.5148H11.2501ZM50.0358 54.8719H9.96439V26.4791H14.143V35.8005C14.143 36.2291 14.3572 36.5505 14.6787 36.7648C15.0001 36.9791 15.4287 36.9791 15.7501 36.7648L27.9644 29.4791L28.5001 36.3362C28.5001 36.7648 28.7144 37.0862 29.143 37.1934C29.4644 37.4076 29.893 37.3005 30.2144 37.0862L40.1787 29.9076V36.2291C40.1787 36.6576 40.393 36.9791 40.8215 37.1934C41.143 37.4076 41.6787 37.3005 42.0001 37.0862L50.2501 30.5505V54.8719H50.0358Z" fill="white"/>
<path d="M43.1786 51.6577H47.7857C48.4286 51.6577 48.8572 51.2291 48.8572 50.5863V45.9791C48.8572 45.3363 48.4286 44.9077 47.7857 44.9077H43.1786C42.5357 44.9077 42.1072 45.3363 42.1072 45.9791V50.5863C42.1072 51.2291 42.5357 51.6577 43.1786 51.6577ZM44.25 47.0506H46.7143V49.5149H44.25V47.0506Z" fill="white"/>
<path d="M29.6786 44.9077H25.0714C24.4286 44.9077 24 45.3363 24 45.9791V50.5863C24 51.2291 24.4286 51.6577 25.0714 51.6577H29.6786C30.3214 51.6577 30.75 51.2291 30.75 50.5863V45.9791C30.75 45.4434 30.2143 44.9077 29.6786 44.9077ZM28.6071 49.5149H26.1429V47.0506H28.6071V49.5149Z" fill="white"/>
<path d="M20.6786 39.1218H16.0714C15.4286 39.1218 15 39.5504 15 40.1933V44.8004C15 45.4433 15.4286 45.8718 16.0714 45.8718H20.6786C21.3214 45.8718 21.75 45.4433 21.75 44.8004V40.1933C21.75 39.6575 21.2143 39.1218 20.6786 39.1218ZM19.6071 43.8361H17.1429V41.3718H19.6071V43.8361Z" fill="white"/>
<path d="M38.6786 39.1218H34.0714C33.4286 39.1218 33 39.5504 33 40.1933V44.8004C33 45.4433 33.4286 45.8718 34.0714 45.8718H38.6786C39.3214 45.8718 39.75 45.4433 39.75 44.8004V40.1933C39.75 39.6575 39.3214 39.1218 38.6786 39.1218ZM37.6071 43.8361H35.1429V41.3718H37.6071V43.8361Z" fill="white"/>
</svg>
