<svg width="87" height="70" viewBox="0 0 87 70" fill="none" xmlns="http://www.w3.org/2000/svg">
<path d="M70.5648 35.7628C80.2839 35.7628 86.8334 42.6457 86.8334 52.844C86.8334 62.0213 79.3058 69.6668 69.1101 69.6668C57.9425 69.6668 49.6906 60.4896 49.6906 46.4717C49.6906 14.6099 72.5087 1.86513 86.8334 0.333496V14.3514C77.1206 16.1352 66.2006 26.0751 65.7115 37.0423C66.2006 36.7902 68.1382 35.7628 70.5648 35.7628ZM21.0472 35.7628C30.7539 35.7628 37.3096 42.6457 37.3096 52.844C37.3096 62.0213 29.782 69.6668 19.5863 69.6668C8.41865 69.6668 0.166748 60.4896 0.166748 46.4717C0.166748 14.6099 22.9848 1.86513 37.3096 0.333496V14.3514C27.5967 16.1352 16.6767 26.0751 16.1877 37.0423C16.6767 36.7902 18.6144 35.7628 21.0472 35.7628Z" fill="#DE2428"/>
</svg>
