<svg width="8" height="12" viewBox="0 0 8 12" fill="none" xmlns="http://www.w3.org/2000/svg">
<path d="M5.15432 6.00267L0.671365 1.69288C0.547926 1.57449 0.48002 1.41621 0.48002 1.24744C0.48002 1.07857 0.547926 0.920384 0.671365 0.801812L1.06419 0.424368C1.18743 0.305609 1.35218 0.240235 1.52774 0.240235C1.7033 0.240235 1.86785 0.305609 1.99119 0.424368L7.32887 5.55554C7.4527 5.67449 7.52051 5.83343 7.52002 6.00239C7.52051 6.1721 7.45279 6.33085 7.32887 6.44989L1.99616 11.5761C1.87282 11.6949 1.70827 11.7602 1.53261 11.7602C1.35705 11.7602 1.1925 11.6949 1.06906 11.5761L0.676335 11.1987C0.420787 10.953 0.420787 10.5531 0.676335 10.3075L5.15432 6.00267Z" fill="#DE2428"/>
</svg>
