<svg width="26" height="25" viewBox="0 0 26 25" fill="none" xmlns="http://www.w3.org/2000/svg">
<path d="M1 3.83333C1 15.2472 10.2528 24.5 21.6667 24.5C22.1816 24.5 22.6921 24.4812 23.1977 24.4441C23.7779 24.4016 24.0679 24.3804 24.332 24.2284C24.5507 24.1025 24.758 23.8793 24.8676 23.652C25 23.3776 25 23.0575 25 22.4173V18.6609C25 18.1225 25 17.8533 24.9113 17.6227C24.8332 17.4188 24.706 17.2373 24.5412 17.0941C24.3547 16.932 24.1016 16.84 23.5957 16.656L19.32 15.1012C18.7313 14.8872 18.4369 14.7801 18.1577 14.7983C17.9115 14.8143 17.6745 14.8984 17.4732 15.0411C17.2449 15.2028 17.0839 15.4713 16.7616 16.0085L15.6667 17.8333C12.1335 16.2332 9.2692 13.3652 7.66667 9.83333L9.49151 8.73843C10.0286 8.41617 10.2971 8.25504 10.4589 8.02675C10.6016 7.82544 10.6857 7.58849 10.7017 7.34227C10.7199 7.06303 10.6128 6.76871 10.3988 6.18007L8.84399 1.90428C8.66 1.39835 8.56801 1.14537 8.40589 0.9588C8.26268 0.793987 8.08119 0.666867 7.87736 0.5886C7.64661 0.5 7.37744 0.5 6.83909 0.5H3.08268C2.44251 0.5 2.12241 0.5 1.84797 0.632333C1.62067 0.741947 1.39752 0.949347 1.2716 1.16804C1.11957 1.43209 1.09833 1.72216 1.05585 2.30231C1.01884 2.80781 1 3.31837 1 3.83333Z" stroke="#DE2428" stroke-linecap="round" stroke-linejoin="round"/>
</svg>
