<svg width="18" height="20" viewBox="0 0 18 20" fill="none" xmlns="http://www.w3.org/2000/svg">
<path d="M9.05979 20C4.94207 20 1.54155 17.9208 0.429626 13.7165C-0.196686 11.3427 -0.0472677 8.66465 0.302621 6.95011C0.694844 5.02546 1.97113 2.34738 4.27466 1.13633C6.69773 -0.136297 9.59521 -0.161653 11.3397 0.20299C13.5436 0.664228 15.1386 1.5855 16.3589 3.10324C17.6489 4.70791 17.9863 6.32828 18 6.3959L16.273 6.72311L17.1359 6.56011L16.273 6.72673C16.2705 6.71345 15.9903 5.4215 14.9705 4.15249C14.0055 2.95231 12.7716 2.24838 10.9674 1.87166C9.40096 1.54444 6.98412 1.65311 5.11141 2.63717C3.22126 3.63088 2.28366 6.02401 2.02716 7.28094C1.72957 8.74193 1.5789 11.193 2.133 13.2915C2.68958 15.3961 3.9173 16.8691 5.7813 17.6709C7.89433 18.5801 10.4407 18.3458 11.9797 17.8701C13.51 17.3968 14.9045 16.059 15.2233 14.7585C15.6342 13.0838 14.9917 11.7943 13.6357 11.036C13.3568 12.8798 12.4603 14.2587 11.0881 14.866C9.04111 15.7728 6.36279 15.0399 5.46752 13.329C4.97444 12.3847 4.9981 11.2437 5.53227 10.349C5.8971 9.73806 6.83719 8.69484 9.04111 8.58134C10.0833 8.52821 11.0346 8.56806 11.8913 8.70208C11.717 7.67818 11.1616 6.43574 9.49684 6.37416C7.98024 6.31862 7.25805 6.94648 6.91813 7.48379L5.41771 6.59271C5.80371 5.98295 6.97914 4.57268 9.56408 4.66927C11.9685 4.75741 13.5573 6.48645 13.7117 9.18023C16.3464 10.2138 17.5766 12.5321 16.9341 15.151C16.4697 17.0466 14.6518 18.8324 12.5139 19.4941C11.5601 19.7887 10.3485 19.9976 9.0573 19.9976L9.05979 20ZM9.92393 10.2657C8.8917 10.2657 7.57557 10.3333 7.05634 11.2039C6.81727 11.6047 6.81104 12.1227 7.03766 12.5574C7.49712 13.4364 9.20423 13.8264 10.3585 13.3145C11.2488 12.9196 11.8091 11.8788 11.9411 10.442C11.3409 10.3237 10.6673 10.2645 9.92393 10.2645V10.2657Z" fill="white"/>
</svg>
