<svg width="39" height="39" viewBox="0 0 39 39" fill="none" xmlns="http://www.w3.org/2000/svg">
<path d="M19.5684 0.776855C9.01519 0.776855 0.460938 9.33272 0.460938 19.8843C0.460938 30.4375 9.01519 38.9918 19.5684 38.9918C30.12 38.9918 38.6758 30.4359 38.6758 19.8843C38.6758 9.33272 30.12 0.776855 19.5684 0.776855ZM14.8874 25.0152C14.8874 26.0479 14.0506 26.8831 13.0196 26.8831C11.9869 26.8831 11.1517 26.0479 11.1517 25.0152V17.0518C11.1517 16.0191 11.9869 15.1823 13.0196 15.1823C14.0506 15.1823 14.8874 16.0191 14.8874 17.0518V25.0152ZM28.0822 24.8809C28.0822 26.3409 27.2292 26.8637 25.7692 26.8637H19.0521C17.5921 26.8637 16.4089 25.6805 16.4089 24.2205V17.6134C16.4089 17.6134 16.2778 16.5144 17.495 15.4817C18.1829 14.8974 19.2042 13.7822 19.918 12.4291C21.3359 9.74061 22.184 8.95721 22.8299 9.16763C25.2221 9.94293 24.026 13.4893 23.2539 14.9703H25.439C26.8974 14.9703 28.0822 16.1535 28.0822 17.6134V24.8809Z" fill="white"/>
</svg>
